<?xml version="1.0" encoding="utf-8"?>
<!-- Generator: Adobe Illustrator 21.0.0, SVG Export Plug-In . SVG Version: 6.00 Build 0)  -->
<svg version="1.1" id="Layer_1" xmlns="http://www.w3.org/2000/svg" xmlns:xlink="http://www.w3.org/1999/xlink" x="0px" y="0px"
	 viewBox="0 0 292 64.8" style="enable-background:new 0 0 292 64.8;" xml:space="preserve">
<style type="text/css">
	.st0{fill:none;stroke:#662D91;stroke-width:2;stroke-miterlimit:10;}
	.st1{fill:none;stroke:#BE1E2D;}
	.st2{fill:#FFFFFF;stroke:#BE1E2D;stroke-miterlimit:10;}
	.st3{fill:none;stroke:#BE1E2D;stroke-width:2;}
	.st4{fill:#ED1C24;}
	.st5{fill:none;stroke:#000000;stroke-miterlimit:10;}
</style>
<path class="st0" d="M131.9,44.1h1.5c1.8,0,3-0.5,3.7-1.6c0.4-0.7,0.7-2.1,0.7-4.5V10.4l-16,34.9h-1l-16-34.9v27.7
	c0,2.5,0.3,4.1,0.8,4.8c0.8,0.9,1.9,1.3,3.6,1.3h1.5 M147.1,5h-1.4c-1.8,0-3,0.5-3.8,1.6c-0.4,0.7-0.7,2.1-0.7,4.5v27.1
	c0,2.5,0.3,4.1,0.9,4.8c0.8,0.9,1.9,1.3,3.6,1.3h1.4 M123,36.3 M95.2,44.1h1.5c1.8,0,3-0.5,3.7-1.6c0.4-0.7,0.7-2.1,0.7-4.5V11
	c0-1.8-0.2-3.2-0.6-4c-0.3-0.6-0.8-1.1-1.6-1.5S96.9,5,95.2,5"/>
<path class="st0" d="M244.4,16.7h-1.6c-2,0-3.4,0.4-4.2,1.1c-0.5,0.5-0.8,1.5-0.8,3.1v19c0,1.8,0.3,2.9,1,3.3c0.8,0.6,2.2,0.9,4,0.9
	h1.6 M216.5,44.1h1.5c1.8,0,3-0.5,3.7-1.6c0.4-0.7,0.7-2.1,0.7-4.5V10.4l-16,34.9h-1l-16-34.9v27.7c0,2.5,0.3,4.1,0.8,4.8
	c0.8,0.9,1.9,1.3,3.6,1.3h1.5 M231.6,5h-1.4c-1.8,0-3,0.5-3.8,1.6c-0.4,0.7-0.7,2.1-0.7,4.5v27.1c0,2.5,0.3,4.1,0.9,4.8
	c0.8,0.9,1.9,1.3,3.6,1.3h1.4 M207.6,36.3 M179.8,44.1h1.5c1.8,0,3-0.5,3.7-1.6c0.4-0.7,0.7-2.1,0.7-4.5V11c0-1.8-0.2-3.2-0.6-4
	c-0.3-0.6-0.8-1.1-1.6-1.5c-0.8-0.4-2-0.6-3.7-0.6"/>
<path class="st1" d="M241.6,5.5c1.2,0,2.2,0.4,3,1.2c0.8,0.8,1.2,1.8,1.2,3s-0.4,2.2-1.2,3.1c-0.8,0.8-1.8,1.3-3,1.3
	s-2.2-0.4-3.1-1.3s-1.3-1.9-1.3-3.1s0.4-2.2,1.2-3S240.4,5.5,241.6,5.5z"/>
<path class="st0" d="M250,44.4h0.8c2,0,3.3-0.5,4-1.5s1-2.9,1-5.8V22.7c0-4.7-0.1-7.5-0.3-8.5c-0.2-1-0.5-1.7-1-2.1
	c-0.4-0.4-1-0.6-1.8-0.6c-0.8,0-1.7,0.2-2.8,0.6l-0.6-0.3l13.5-6l0,0v8.2c4.6-5.5,8.9-8.2,13-8.2c2.1,0,4,0.5,5.5,1.6
	s2.7,2.8,3.7,5.2c0.6,1.7,0.9,4.3,0.9,7.8v16.6c0,2.5,0.2,4.1,0.6,5c0.3,0.7,0.8,1.3,1.5,1.7s2,0.6,3.8,0.6 M274,43.2h-0.4
	c1.8,0,3.1-0.3,3.8-0.8c0.7-0.6,1.2-1.4,1.5-2.4c0.1-0.4,0.2-0.5,0.2-2.8V21.2c0-3.5-0.5-6.1-1.4-7.7c-0.9-1.6-2.5-2.4-4.7-2.4
	c-3.4,0-6.7,3-10.1,6.7v19.3c0,2.6,0.2,3.1,0.5,3.7c0.4,0.8,0.9,1.4,1.6,1.8s0.9,0.6,3,0.6"/>
<circle class="st2" cx="241.6" cy="11.8" r="2.2"/>
<path class="st0" d="M35.7,46.9h1.5c1.8,0,3-0.5,3.7-1.6c0.4-0.7,0.7-2.1,0.7-4.5V13.1L25.6,48h-1l-16-34.9v27.7
	c0,2.5,0.3,4.1,0.8,4.8c0.8,0.9,1.9,1.3,3.6,1.3h1.5 M49.8,7.7h-1.4c-1.8,0-3,0.5-3.8,1.6c-0.4,0.7-0.7,2.1-0.7,4.5v27.1
	c0,2.5,0.3,4.1,0.9,4.8c0.8,0.9,1.9,1.3,3.6,1.3h1.4 M26.8,39 M0,46.9h1.5c1.8,0,3-0.5,3.7-1.6c0.4-0.7,0.7-2.1,0.7-4.5V13.7
	c0-1.8-0.2-3.2-0.6-4C5,9.2,4.4,8.7,3.7,8.3C2.9,7.9,1.7,7.7,0,7.7"/>
<g>
	<path class="st3" d="M87.2,39.7c-67.6,51.1-71.4,5-71.4,5C7-8.5,73.6,1.8,73.6,1.8v32.4c0,3.3,0.1,5.3,0.2,6s0.4,1.2,0.7,1.5
		c0.3,0.3,0.7,0.4,1.2,0.4c0.6,0,1.3-0.2,2.2-0.5l0,0l-8,4.5h-1.4v-4c-1.4,1.4-2.7,2.5-4,3.1c-1.3,0.6-2.7,0.9-4.2,0.9
		c-3.1,0-5.7-1.3-8-3.8c-2.3-2.6-3.4-5.8-3.4-9.9s1.3-7.7,3.8-11c2.5-3.3,5.8-5,9.8-5c2.5,0,4.5,0.8,6.1,2.4v-5.2
		c0-3.2-0.1-5.2-0.2-5.9s-0.4-2.1-0.7-2.4c-0.3-0.3-0.7-0.7-1.2-0.7c-0.5,0-1.3-0.4-2.2,0c0,0-50.5-3-44.6,39.6
		c5.3,38.4,62.8,1.2,64.6-3.5C86.7,33.8,87.2,39.7,87.2,39.7z M68.5,25.6c-0.1-1.4-0.5-1.8-1.1-2.9c-0.6-1.1-1.4-2-2.4-2.6
		c-1-0.6-2-0.9-2.9-0.9c-1.8,0-3.4,0.8-4.8,2.4c-1.9,2.1-2.8,4.3-2.8,8.4c0,4.1,0.9,7.3,2.7,9.5c1.8,2.2,3.8,3.3,6,3.3
		c1.9,0,3.6-1.8,5.4-3.7"/>
</g>
<circle class="st4" cx="86.2" cy="39.5" r="3.7"/>
<line class="st5" x1="17.6" y1="32.7" x2="21.5" y2="41.3"/>
<circle class="st0" cx="163.9" cy="27.6" r="11"/>
<circle class="st0" cx="163.9" cy="27.6" r="15.9"/>
</svg>
