<?xml version="1.0" encoding="utf-8"?>
<!-- Generator: Adobe Illustrator 21.0.0, SVG Export Plug-In . SVG Version: 6.00 Build 0)  -->
<svg version="1.1" id="Layer_1" xmlns="http://www.w3.org/2000/svg" xmlns:xlink="http://www.w3.org/1999/xlink" x="0px" y="0px"
	 viewBox="0 0 595.4 841.7" style="enable-background:new 0 0 595.4 841.7;" xml:space="preserve">
<style type="text/css">
	.st0{fill:none;stroke:#000000;stroke-miterlimit:10;}
	.st1{fill:none;stroke:#BE1E2D;}
	.st2{fill:#FFFFFF;stroke:#BE1E2D;stroke-miterlimit:10;}
	.st3{fill:#ED1C24;}
</style>
<g>
	<path class="st0" d="M194.4,487.6h1.7c2,0,3.5-0.6,4.3-1.8c0.5-0.8,0.8-2.5,0.8-5.1v-31.9l-18.4,40.1h-1.2l-18.4-40.1v31.9
		c0,2.9,0.3,4.8,0.9,5.5c0.9,1,2.2,1.5,4.1,1.5h1.7 M210.7,442.5H209c-2,0-3.5,0.6-4.3,1.8c-0.5,0.8-0.8,2.5-0.8,5.1v31.1
		c0,2.9,0.3,4.8,1,5.5c0.9,1,2.2,1.5,4.1,1.5h1.7 M184.1,478.5 M153.3,487.6h1.7c2,0,3.4-0.6,4.3-1.8c0.5-0.8,0.8-2.5,0.8-5.1v-31.1
		c0-2.1-0.2-3.6-0.7-4.6c-0.3-0.7-0.9-1.2-1.8-1.7s-2.3-0.7-4.2-0.7"/>
	<path class="st0" d="M323.8,456h-1.8c-2.3,0-3.9,0.4-4.8,1.3c-0.6,0.5-0.9,1.7-0.9,3.6v21.8c0,2.1,0.4,3.3,1.1,3.8
		c1,0.7,2.5,1,4.6,1h1.8 M291.7,487.6h1.7c2,0,3.5-0.6,4.3-1.8c0.5-0.8,0.8-2.5,0.8-5.1v-31.9L280,488.9h-1.2l-18.4-40.1v31.9
		c0,2.9,0.3,4.8,0.9,5.5c0.9,1,2.2,1.5,4.1,1.5h1.7 M307.9,442.5h-1.7c-2,0-3.5,0.6-4.3,1.8c-0.5,0.8-0.8,2.5-0.8,5.1v31.1
		c0,2.9,0.3,4.8,1,5.5c0.9,1,2.2,1.5,4.1,1.5h1.7 M281.4,478.5 M250.6,487.6h1.7c2,0,3.4-0.6,4.3-1.8c0.5-0.8,0.8-2.5,0.8-5.1v-31.1
		c0-2.1-0.2-3.6-0.7-4.6c-0.3-0.7-0.9-1.2-1.8-1.7s-2.3-0.7-4.2-0.7"/>
	<path class="st0" d="M228.8,457.1c4.4,0.5,7.8,2.5,10.2,6.2c2,3.1,10,7.3,9.6,11.1c-0.3,2.6-8.4,4.5-9.9,7
		c-1.5,2.6-3.5,4.4-5.9,5.5c-2.4,1.1-4.9,1.6-7.6,1.3c-4.4-0.5-7.8-2.6-10-6.4c-1.9-3.2-2.6-6.7-2.2-10.3c0.3-2.7,1.2-5.3,2.9-7.8
		c1.6-2.5,3.6-4.3,5.9-5.3C224,457.3,226.4,456.9,228.8,457.1z M227.6,459.1c-1.1-0.1-2.3,0.1-3.5,0.6c-1.2,0.6-2.3,1.6-3.1,3.2
		c-0.9,1.6-1.5,3.7-1.7,6.4c-0.5,4.3,0,8,1.4,11.3s3.4,5.1,6.2,5.4c2.1,0.2,3.9-0.5,5.4-2c1.5-1.6,2.5-4.4,2.9-8.6
		c0.6-5.2-0.1-9.4-2.1-12.7C231.8,460.6,229.9,459.4,227.6,459.1z"/>
	<path class="st1" d="M320.5,443.1c1.4,0,2.5,0.5,3.5,1.4s1.4,2.1,1.4,3.5c0,1.4-0.5,2.5-1.4,3.5c-1,1-2.1,1.5-3.5,1.5
		c-1.4,0-2.5-0.5-3.5-1.5c-1-1-1.5-2.1-1.5-3.5c0-1.4,0.5-2.5,1.4-3.5S319.1,443.1,320.5,443.1z"/>
	<path class="st0" d="M330.2,487.9h1c2.3,0,3.8-0.6,4.6-1.7s1.2-3.4,1.2-6.6v-16.6c0-5.4-0.1-8.6-0.4-9.8c-0.2-1.2-0.6-2-1.1-2.4
		c-0.5-0.4-1.2-0.6-2-0.6c-0.9,0-2,0.2-3.3,0.7l-0.7-0.4l15.6-6.9l0,0v9.5c5.2-6.3,10.2-9.5,15-9.5c2.4,0,4.5,0.6,6.3,1.8
		c1.8,1.2,3.2,3.2,4.2,6c0.7,2,1.1,5,1.1,9v19.1c0,2.8,0.2,4.8,0.7,5.8c0.4,0.8,0.9,1.4,1.7,1.9c0.8,0.5,2.3,0.7,4.4,0.7
		 M357.8,486.5h-0.5c2.1,0,3.5-0.3,4.4-1s1.4-1.6,1.7-2.8c0.1-0.5,0.2-0.6,0.2-3.2v-18.3c0-4.1-0.5-7-1.6-8.9
		c-1.1-1.8-2.8-2.8-5.3-2.8c-3.9,0-7.7,3.5-11.6,7.7v22.2c0,3,0.2,3.5,0.5,4.2c0.5,0.9,1.1,1.6,1.9,2.1c0.8,0.4,1,0.7,3.5,0.7"/>
	<circle class="st2" cx="320.5" cy="450.4" r="2.6"/>
	<path class="st0" d="M83.7,490.7h1.7c2,0,3.5-0.6,4.3-1.8c0.5-0.8,0.8-2.5,0.8-5.1v-31.9L72.1,492h-1.2l-18.4-40.1v31.9
		c0,2.9,0.3,4.8,0.9,5.5c0.9,1,2.2,1.5,4.1,1.5h1.7 M100,445.6h-1.7c-2,0-3.5,0.6-4.3,1.8c-0.5,0.8-0.8,2.5-0.8,5.1v31.1
		c0,2.9,0.3,4.8,1,5.5c0.9,1,2.2,1.5,4.1,1.5h1.7 M73.5,481.6 M42.7,490.7h1.7c2,0,3.4-0.6,4.3-1.8c0.5-0.8,0.8-2.5,0.8-5.1v-31.1
		c0-2.1-0.2-3.6-0.7-4.6c-0.3-0.7-0.9-1.2-1.8-1.7s-2.3-0.7-4.2-0.7"/>
	<g>
		<path class="st1" d="M143,482.5c-77.7,58.8-82.2,5.8-82.2,5.8c-10-61.3,66.5-49.4,66.5-49.4v37.2c0,3.8,0.1,6.1,0.3,6.9
			s0.5,1.4,0.8,1.7s0.8,0.5,1.4,0.5c0.6,0,1.5-0.2,2.5-0.6l0,0l-9.2,5.2h-1.6v-4.6c-1.6,1.6-3.1,2.8-4.6,3.5
			c-1.5,0.7-3.1,1.1-4.9,1.1c-3.5,0-6.6-1.5-9.2-4.4c-2.6-2.9-3.9-6.7-3.9-11.3s1.5-8.8,4.4-12.7c2.9-3.8,6.6-5.7,11.2-5.7
			c2.8,0,5.2,0.9,7,2.7v-5.9c0-3.7-0.1-5.9-0.3-6.8s-0.5-2.4-0.8-2.7c-0.4-0.3-0.8-0.9-1.3-0.9c-0.6,0-1.5-0.4-2.5,0
			c0,0-58-3.4-51.3,45.5c6.1,44.2,72.3,1.4,74.3-4.1C142.3,475.7,143,482.5,143,482.5z M121.5,466.2c-0.1-1.6-0.6-2-1.3-3.4
			s-1.6-2.3-2.8-3s-2.3-1-3.4-1c-2.1,0-3.9,0.9-5.5,2.8c-2.1,2.4-3.2,5-3.2,9.7c0,4.7,1,8.4,3.1,10.9c2.1,2.5,4.4,3.8,6.9,3.8
			c2.1,0,4.2-2.1,6.2-4.2"/>
	</g>
	<circle class="st3" cx="141.8" cy="482.3" r="4.3"/>
	<line class="st0" x1="62.9" y1="474.4" x2="67.4" y2="484.3"/>
</g>
</svg>
